<?xml version="1.0" encoding="UTF-8"?>
<svg version="1.1" xmlns="http://www.w3.org/2000/svg" width="500" height="500">
<path d="M0 0 C0.88141663 -0.02897369 1.76283325 -0.05794739 2.67095947 -0.08779907 C6.70864741 -0.18532921 10.74616556 -0.25933113 14.78466797 -0.31347656 C16.91298444 -0.3501437 19.04107059 -0.40472138 21.16845703 -0.47753906 C24.23911517 -0.58105511 27.30579497 -0.62541326 30.37792969 -0.65771484 C31.32500793 -0.70102936 32.27208618 -0.74434387 33.24786377 -0.78897095 C36.01562449 -0.78108301 38.12323028 -0.66344084 40.73730469 0.25634766 C43.38969902 2.95061446 45.04000731 5.90173665 46.73730469 9.25634766 C47.53653604 10.63712441 48.34030245 12.01530092 49.15136719 13.38916016 C49.89209417 14.71780681 50.62912062 16.04852376 51.36230469 17.38134766 C52.10427191 18.71740751 52.84645774 20.05334598 53.58886719 21.38916016 C53.90678223 21.96553223 54.22469727 22.5419043 54.55224609 23.13574219 C56.258354 26.18874038 57.99943085 29.22132223 59.73730469 32.25634766 C61.26484375 32.16994019 61.26484375 32.16994019 62.82324219 32.08178711 C66.63155137 31.881444 70.43940649 31.75599615 74.25146484 31.65209961 C75.89516689 31.59705125 77.53833671 31.52217549 79.18017578 31.42651367 C92.74636659 30.65636258 92.74636659 30.65636258 97.46508789 34.44848633 C99.56079376 37.28710525 101.16986688 40.09888723 102.73730469 43.25634766 C103.65893346 44.76600855 104.58905109 46.27054308 105.53027344 47.76806641 C106.33451035 49.15650101 107.13284891 50.5483715 107.92480469 51.94384766 C109.12584468 54.03354083 110.32744342 56.11782427 111.57861328 58.17797852 C112.73730469 60.25634766 112.73730469 60.25634766 113.58740234 62.57104492 C114.69822996 65.17923621 115.45517292 66.54568213 117.73730469 68.25634766 C122.35577119 68.75063055 126.86549793 68.33058062 131.47781372 67.96929932 C147.60758821 66.89527362 147.60758821 66.89527362 153.42529297 71.28417969 C157.76977149 76.67254687 160.26230191 82.86858908 162.61865234 89.32666016 C164.18193304 93.42080426 166.29376551 97.10019235 168.48730469 100.88134766 C170.57270431 104.71042176 172.12544662 107.92503658 172.73730469 112.25634766 C169.81909006 112.39145019 166.90712817 112.49047816 163.98730469 112.56884766 C163.16230469 112.61074219 162.33730469 112.65263672 161.48730469 112.69580078 C155.41076938 112.81831157 155.41076938 112.81831157 152.37792969 110.28759766 C151.05896991 107.85066244 150.0967123 105.62930695 149.14355469 103.04931641 C147.17101464 97.99197894 145.1604508 93.59138411 140.73730469 90.25634766 C131.90842917 87.23594287 121.5889098 87.37048188 112.73730469 90.25634766 C108.48811521 93.18785431 106.54323664 97.10523894 104.62402344 101.77978516 C104.00367477 103.27555056 103.37406706 104.76749565 102.73730469 106.25634766 C102.35550049 107.17351562 101.97369629 108.09068359 101.58032227 109.03564453 C99.90647605 112.2001687 98.61193729 114.09711634 95.73730469 116.25634766 C90.58422535 116.98669478 85.67583175 116.59023855 80.50540161 116.17895508 C68.1358824 115.08579406 68.1358824 115.08579406 56.96582031 119.27392578 C52.82590103 124.41300238 50.63326034 130.21885767 48.69482422 136.47119141 C47.44142384 140.11698222 45.65058203 143.28876117 43.68823242 146.59423828 C42.65453936 148.08186041 42.65453936 148.08186041 42.73730469 149.25634766 C26.89730469 149.25634766 11.05730469 149.25634766 -5.26269531 149.25634766 C-6.91269531 145.95634766 -8.56269531 142.65634766 -10.26269531 139.25634766 C-11.27178202 137.47933962 -12.30335968 135.71449599 -13.37597656 133.97509766 C-13.90126953 133.11400391 -14.4265625 132.25291016 -14.96777344 131.36572266 C-16.0587158 129.59476397 -17.14986873 127.82393498 -18.24121094 126.05322266 C-18.76005859 125.20244141 -19.27890625 124.35166016 -19.81347656 123.47509766 C-20.28438721 122.71132813 -20.75529785 121.94755859 -21.24047852 121.16064453 C-22.26269531 119.25634766 -22.26269531 119.25634766 -22.26269531 117.25634766 C-23.41318359 117.36462891 -23.41318359 117.36462891 -24.58691406 117.47509766 C-27.69796551 117.73525527 -30.80781203 117.94054007 -33.92480469 118.11425781 C-35.57563201 118.21459005 -37.22539654 118.33321254 -38.87402344 118.46484375 C-41.64878984 118.67635313 -44.42046894 118.81513631 -47.20019531 118.94384766 C-48.53087036 119.06373047 -48.53087036 119.06373047 -49.88842773 119.18603516 C-52.64334304 119.2733196 -54.65257189 119.15655344 -57.26269531 118.25634766 C-60.31219683 115.34717509 -62.19507403 111.90186731 -64.26269531 108.25634766 C-65.61796341 106.09101133 -66.97751282 103.92835011 -68.34082031 101.76806641 C-69.73466721 99.49520515 -71.12529152 97.22062112 -72.51269531 94.94384766 C-73.22595182 93.77895947 -73.93949226 92.61424507 -74.65332031 91.44970703 C-76.52763772 88.38796694 -78.39891463 85.3245122 -80.26269531 82.25634766 C-80.8347168 81.36665283 -81.40673828 80.47695801 -81.99609375 79.56030273 C-83.26269531 77.25634766 -83.26269531 77.25634766 -83.07519531 74.56884766 C-82.26269531 72.25634766 -82.26269531 72.25634766 -80.26269531 70.25634766 C-75.24034868 68.85313829 -70.11095085 68.00176906 -65.26269531 70.25634766 C-60.7454617 74.88813496 -58.03953492 81.00468685 -55.375 86.83105469 C-54.07099214 89.67434136 -52.67178365 92.46389164 -51.26269531 95.25634766 C-50.67831696 95.25190643 -50.0939386 95.24746521 -49.49185181 95.2428894 C-43.42525674 95.19874003 -37.35870709 95.16851631 -31.29199219 95.14648438 C-29.02602282 95.13640907 -26.76006651 95.12274847 -24.49414062 95.10546875 C-21.24248031 95.08128755 -17.99099144 95.06988003 -14.73925781 95.06103516 C-13.21264023 95.0455513 -13.21264023 95.0455513 -11.65518188 95.02975464 C-10.7143576 95.02960358 -9.77353333 95.02945251 -8.80419922 95.02929688 C-7.55843613 95.02263504 -7.55843613 95.02263504 -6.2875061 95.01583862 C-4.26269531 95.25634766 -4.26269531 95.25634766 -2.26269531 97.25634766 C-1.88769531 99.69384766 -1.88769531 99.69384766 -2.26269531 102.25634766 C-4.26269531 104.06884766 -4.26269531 104.06884766 -6.26269531 105.25634766 C-5.77269601 110.3094655 -4.00369823 113.83733972 -1.26269531 118.00634766 C-0.53308215 119.1466871 0.1961036 120.28730016 0.92480469 121.42822266 C1.82199219 122.82814453 1.82199219 122.82814453 2.73730469 124.25634766 C3.06730469 124.91634766 3.39730469 125.57634766 3.73730469 126.25634766 C4.94060425 126.29393188 4.94060425 126.29393188 6.16821289 126.33227539 C9.79557543 126.44816809 13.42267386 126.57092516 17.04980469 126.69384766 C18.31244141 126.73316406 19.57507813 126.77248047 20.87597656 126.81298828 C22.08447266 126.85488281 23.29296875 126.89677734 24.53808594 126.93994141 C25.65352783 126.97659912 26.76896973 127.01325684 27.91821289 127.05102539 C30.73730469 127.25634766 30.73730469 127.25634766 33.73730469 128.25634766 C34.1046875 127.03044922 34.1046875 127.03044922 34.47949219 125.77978516 C35.96278081 121.62473442 37.85531418 117.80313477 39.86230469 113.88134766 C40.23484375 113.14529297 40.60738281 112.40923828 40.99121094 111.65087891 C41.90291689 109.85084407 42.81960401 108.05333364 43.73730469 106.25634766 C42.9084375 105.49966797 42.07957031 104.74298828 41.22558594 103.96337891 C40.40445313 103.07005859 39.58332031 102.17673828 38.73730469 101.25634766 C38.92480469 97.94384766 38.92480469 97.94384766 39.73730469 95.25634766 C41.71730469 95.58634766 43.69730469 95.91634766 45.73730469 96.25634766 C45.73730469 95.59634766 45.73730469 94.93634766 45.73730469 94.25634766 C46.39730469 94.25634766 47.05730469 94.25634766 47.73730469 94.25634766 C47.73730469 94.91634766 47.73730469 95.57634766 47.73730469 96.25634766 C69.86665335 98.62821162 69.86665335 98.62821162 90.61328125 93.52294922 C95.42627873 88.33053296 97.52373306 81.75948114 97.85522461 74.77001953 C97.51353312 67.48626063 94.4053106 60.40910419 89.53417969 55.02636719 C82.18614557 50.37611864 71.36235056 52.12976434 63.04321289 52.87646484 C53.73215993 53.5580331 53.73215993 53.5580331 49.73730469 52.25634766 C45.67114558 48.25870649 43.78444028 43.47123586 41.73730469 38.25634766 C38.43078089 29.50188299 38.43078089 29.50188299 32.73730469 22.25634766 C26.86427144 19.84792293 20.16622353 20.78196078 13.98730469 21.25634766 C-2.8923991 22.25798625 -2.8923991 22.25798625 -6.5168457 19.60864258 C-8.83186874 16.07574263 -9.27214874 13.81409965 -9.20019531 9.56884766 C-7.6105214 3.95199983 -7.6105214 3.95199983 -6.26269531 1.25634766 C-3.97049957 0.11024979 -2.55223688 0.08188518 0 0 Z " fill="#F9B509" transform="translate(232.2626953125,207.74365234375)"/>
<path d="M0 0 C1.00861084 0.05792725 2.01722168 0.11585449 3.05639648 0.17553711 C6.16005813 0.34666694 9.23589212 0.360162 12.34375 0.3515625 C26.25565827 0.56631788 26.25565827 0.56631788 30.86791992 4.10571289 C32.52152725 6.75545645 33.43452176 9.16956465 34.33007812 12.15820312 C39.24801609 24.6529296 39.24801609 24.6529296 48.33007812 34.15820312 C55.62308132 36.4822261 63.6998394 35.89681983 71.2409668 35.48266602 C72.38415123 35.42308716 72.38415123 35.42308716 73.5504303 35.36230469 C75.00198657 35.27247275 76.45210822 35.15324846 77.89842224 35.00073242 C79.88525391 34.84790039 79.88525391 34.84790039 83.33007812 35.15820312 C85.63134766 37.3671875 85.63134766 37.3671875 87.33007812 40.15820312 C87.80155273 40.90835693 88.27302734 41.65851074 88.75878906 42.43139648 C89.1896582 43.19589111 89.62052734 43.96038574 90.06445312 44.74804688 C90.55268555 45.60865723 91.04091797 46.46926758 91.54394531 47.35595703 C92.05086914 48.26007324 92.55779297 49.16418945 93.08007812 50.09570312 C94.14235126 51.97734164 95.20485201 53.85885166 96.26757812 55.74023438 C96.78578125 56.6601416 97.30398438 57.58004883 97.83789062 58.52783203 C99.17122847 60.87818903 100.52409743 63.21490917 101.89257812 65.54492188 C102.26672852 66.18502197 102.64087891 66.82512207 103.02636719 67.48461914 C104.01493885 69.1720166 105.00827946 70.85661758 106.00195312 72.54101562 C107.33007812 75.15820312 107.33007812 75.15820312 107.33007812 78.15820312 C104.2472437 78.30374659 101.16529373 78.39234134 98.08007812 78.47070312 C97.20738281 78.51259766 96.3346875 78.55449219 95.43554688 78.59765625 C88.95882258 78.72125786 88.95882258 78.72125786 85.97460938 76.04882812 C85.16056641 74.61796875 85.16056641 74.61796875 84.33007812 73.15820312 C83.65847656 72.10503906 82.986875 71.051875 82.29492188 69.96679688 C81.62589844 68.85433594 80.956875 67.741875 80.26757812 66.59570312 C78.96975207 64.44096312 77.65857744 62.29416814 76.33007812 60.15820312 C75.98686523 59.44317627 75.64365234 58.72814941 75.29003906 57.99145508 C72.04653974 54.95764387 68.33640677 55.66760044 64.06835938 55.76757812 C63.16256638 55.77323792 62.25677338 55.77889771 61.3235321 55.784729 C58.42934402 55.80712697 55.53639223 55.85732921 52.64257812 55.90820312 C50.68100746 55.92826372 48.71941739 55.94651526 46.7578125 55.96289062 C41.94809107 56.00700294 37.13929422 56.07605371 32.33007812 56.15820312 C32.00007812 56.81820312 31.67007813 57.47820312 31.33007812 58.15820312 C30.01007813 57.82820313 28.69007813 57.49820313 27.33007812 57.15820312 C26.64257812 54.84570313 26.64257812 54.84570313 26.33007812 52.15820312 C27.33007812 51.15820312 28.33007812 50.15820312 29.33007812 49.15820312 C31.40295185 41.68035961 28.79075463 36.75492701 25.21166992 30.32470703 C22.62035409 26.54756154 20.61907665 24.53164203 16.15478516 23.23828125 C8.22163998 22.19253368 0.28670097 22.48875748 -7.66992188 23.15820312 C-7.95456299 23.91125732 -8.2392041 24.66431152 -8.5324707 25.44018555 C-9.49510687 27.74047069 -10.48153202 29.59519777 -11.86914062 31.64648438 C-12.47532227 32.58331055 -12.47532227 32.58331055 -13.09375 33.5390625 C-13.93438831 34.82405676 -14.78859407 36.10027937 -15.65625 37.3671875 C-18.86038007 42.3978265 -18.9420459 45.34001153 -17.66992188 51.15820312 C-16.67992187 51.15820312 -15.68992188 51.15820312 -14.66992188 51.15820312 C-14.99992188 52.80820313 -15.32992187 54.45820313 -15.66992188 56.15820312 C-31.50992188 55.82820313 -47.34992188 55.49820313 -63.66992188 55.15820312 C-64.65992188 58.12820312 -64.65992188 58.12820312 -65.66992188 61.15820312 C-67.3857648 64.16685078 -69.1533243 67.11392369 -71.01171875 70.03515625 C-72.5605534 72.60155559 -73.67290596 74.54149184 -73.65820312 77.58007812 C-72.23284581 81.29840155 -70.49945356 84.81138055 -68.66992188 88.34570312 C-68.30125 89.06951172 -67.93257813 89.79332031 -67.55273438 90.5390625 C-66.59665069 92.41459162 -65.63374578 94.28663989 -64.66992188 96.15820312 C-64.33992188 96.81820312 -64.00992188 97.47820312 -63.66992188 98.15820312 C-62.42287476 98.19578735 -62.42287476 98.19578735 -61.15063477 98.23413086 C-58.02504886 98.33005844 -54.89958658 98.42923616 -51.77416992 98.53051758 C-49.77270065 98.59441717 -47.77111594 98.65466797 -45.76953125 98.71484375 C-42.06804352 98.83605116 -38.36961407 98.99176285 -34.66992188 99.15820312 C-33.27833862 99.19143677 -33.27833862 99.19143677 -31.85864258 99.2253418 C-28.04374347 99.4304439 -26.12136274 99.70056753 -23.39257812 102.46679688 C-22.84472656 103.49933594 -22.296875 104.531875 -21.73242188 105.59570312 C-21.42304688 106.15539795 -21.11367187 106.71509277 -20.79492188 107.29174805 C-20.1109647 108.53577897 -19.44124931 109.78771405 -18.78369141 111.04589844 C-17.54456797 113.39594139 -16.25090273 115.71053797 -14.94726562 118.02539062 C-12.49303423 122.38775368 -10.0743272 126.76819259 -7.66992188 131.15820312 C-6.59508545 131.15820312 -5.52024902 131.15820312 -4.4128418 131.15820312 C7.50146484 131.15820312 19.41577148 131.15820312 31.33007812 131.15820312 C31.66007813 132.47820312 31.99007812 133.79820312 32.33007812 135.15820312 C32.99007812 135.15820312 33.65007812 135.15820312 34.33007812 135.15820312 C35.9683944 138.88992354 36.38796607 140.8424507 35.64257812 144.90820312 C34.33007812 148.15820312 34.33007812 148.15820312 31.33007812 150.15820312 C28.99519348 150.39871216 28.99519348 150.39871216 26.21606445 150.38525391 C25.17521194 150.38510284 24.13435944 150.38495178 23.06196594 150.38479614 C21.94001328 150.37447357 20.81806061 150.364151 19.66210938 150.35351562 C18.51215988 150.35068573 17.36221039 150.34785583 16.17741394 150.34494019 C12.49903016 150.33373145 8.8208885 150.30862537 5.14257812 150.28320312 C2.65104518 150.27317423 0.15950842 150.26404823 -2.33203125 150.25585938 C-8.44474428 150.23378985 -14.55731578 150.20030537 -20.66992188 150.15820312 C-20.33992187 149.16820312 -20.00992188 148.17820312 -19.66992188 147.15820312 C-21.04290652 144.22020801 -22.75047829 141.58475823 -24.48950195 138.84838867 C-26.01456928 136.37165265 -27.26378136 133.8982961 -28.4152832 131.22875977 C-31.54229636 124.01912831 -31.54229636 124.01912831 -37.53320312 119.45782471 C-42.04115632 118.7639519 -46.53357415 119.19763621 -51.05215454 119.63043213 C-68.20757301 121.15004438 -68.20757301 121.15004438 -74.40039062 117.58740234 C-78.45655402 113.51675265 -80.73232074 108.65126697 -82.79345703 103.34179688 C-83.91130037 100.55684122 -85.4522906 98.23583909 -87.16992188 95.78320312 C-91.01206566 89.70769498 -94.66572407 83.51434447 -98.3203125 77.32470703 C-100.59632811 73.49461357 -102.89792386 69.7657949 -105.53710938 66.17382812 C-107.66992188 63.15820312 -107.66992188 63.15820312 -107.66992188 61.15820312 C-121.52992187 61.15820312 -135.38992187 61.15820312 -149.66992188 61.15820312 C-149.66992188 59.50820312 -149.66992188 57.85820312 -149.66992188 56.15820312 C-149.00992188 56.15820312 -148.34992188 56.15820312 -147.66992188 56.15820312 C-147.54875 55.55492187 -147.42757812 54.95164063 -147.30273438 54.33007812 C-147.13515625 53.53085938 -146.96757812 52.73164063 -146.79492188 51.90820312 C-146.6325 51.11929688 -146.47007812 50.33039063 -146.30273438 49.51757812 C-145.67696272 47.18445418 -144.7776057 45.29473206 -143.66992188 43.15820312 C-137.22909947 42.98036356 -130.78891224 42.85798523 -124.34619141 42.77368164 C-122.15584658 42.73853116 -119.96566539 42.6907999 -117.77587891 42.63012695 C-114.62296165 42.54497099 -111.47221876 42.50546068 -108.31835938 42.47460938 C-107.34313324 42.43848038 -106.3679071 42.40235138 -105.36312866 42.36512756 C-98.68063023 42.36128927 -98.68063023 42.36128927 -95.7331543 44.68528748 C-94.20927989 46.44224737 -92.91603801 48.1973869 -91.66992188 50.15820312 C-91.13882813 50.88910156 -90.60773438 51.62 -90.06054688 52.37304688 C-89.68414062 52.94152344 -89.30773437 53.51 -88.91992188 54.09570312 C-88.17742187 55.10632813 -87.43492187 56.11695313 -86.66992188 57.15820312 C-86.00992188 57.15820312 -85.34992188 57.15820312 -84.66992188 57.15820312 C-83.39294938 55.51162615 -83.39294938 55.51162615 -82.17382812 53.36132812 C-81.69751953 52.56726563 -81.22121094 51.77320313 -80.73046875 50.95507812 C-79.98893555 49.694375 -79.98893555 49.694375 -79.23242188 48.40820312 C-78.25637554 46.76649576 -77.27856584 45.12583523 -76.29882812 43.48632812 C-75.86642822 42.75317383 -75.43402832 42.02001953 -74.98852539 41.26464844 C-74.55338623 40.56952148 -74.11824707 39.87439453 -73.66992188 39.15820312 C-73.08331787 38.03901489 -73.08331787 38.03901489 -72.48486328 36.8972168 C-70.66992188 35.15820312 -70.66992188 35.15820312 -67.2434082 34.81860352 C-65.82898101 34.86523136 -64.41504731 34.92876688 -63.00195312 35.00585938 C-61.45317361 35.03523744 -59.90433944 35.06184064 -58.35546875 35.0859375 C-55.9214687 35.14349914 -53.49371227 35.22011657 -51.06225586 35.34643555 C-45.69478158 35.60312418 -40.88793786 35.55121817 -35.66992188 34.15820312 C-31.09434012 29.97066915 -28.98799874 24.34276771 -26.6572876 18.71160889 C-20.67338534 4.63256398 -15.69504167 -0.41249534 0 0 Z " fill="#F9B509" transform="translate(244.669921875,140.841796875)"/>
<path d="M0 0 C1.98 0.99 1.98 0.99 4 2 C4 2.99 4 3.98 4 5 C4.66 5 5.32 5 6 5 C8.21474076 10.04468729 7.85072153 12.85910687 6 18 C5.34 17.67 4.68 17.34 4 17 C4.06960938 16.03900391 4.06960938 16.03900391 4.140625 15.05859375 C4.40560564 8.7085219 3.63447223 5.22455383 0 0 Z " fill="#FEE69E" transform="translate(273,271)"/>
<path d="M0 0 C1.98 0.99 1.98 0.99 4 2 C4 3.65 4 5.3 4 7 C3.01 7.33 2.02 7.66 1 8 C0.67 5.36 0.34 2.72 0 0 Z " fill="#FFF6B8" transform="translate(226,303)"/>
<path d="M0 0 C0.33 0.99 0.66 1.98 1 3 C1.99 3 2.98 3 4 3 C3.67 4.65 3.34 6.3 3 8 C2.34 8 1.68 8 1 8 C1 7.01 1 6.02 1 5 C0.34 4.67 -0.32 4.34 -1 4 C-0.67 2.68 -0.34 1.36 0 0 Z " fill="#FDCF63" transform="translate(226,189)"/>
<path d="M0 0 C0.99 0.33 1.98 0.66 3 1 C2.67 2.98 2.34 4.96 2 7 C1.01 6.67 0.02 6.34 -1 6 C-0.67 4.02 -0.34 2.04 0 0 Z " fill="#FFF4DD" transform="translate(272,303)"/>
<path d="M0 0 C1.32 0 2.64 0 4 0 C4 0.66 4 1.32 4 2 C2.35 2.66 0.7 3.32 -1 4 C-0.67 2.68 -0.34 1.36 0 0 Z " fill="#FF3C3C" transform="translate(105,177)"/>
<path d="M0 0 C1.65 0 3.3 0 5 0 C5 0.66 5 1.32 5 2 C3.35 1.67 1.7 1.34 0 1 C0 0.67 0 0.34 0 0 Z " fill="#FFDFE1" transform="translate(283,261)"/>
<path d="M0 0 C0.99 0.33 1.98 0.66 3 1 C2.01 1.33 1.02 1.66 0 2 C0 1.34 0 0.68 0 0 Z " fill="#FFFFD6" transform="translate(146,279)"/>
<path d="" fill="#FFFFFF" transform="translate(0,0)"/>
<path d="" fill="#FFFFFF" transform="translate(0,0)"/>
</svg>
