<?xml version="1.0" encoding="UTF-8"?>
<svg version="1.1" xmlns="http://www.w3.org/2000/svg" width="500" height="500">
<path d="M0 0 C1.38638672 -0.0309375 1.38638672 -0.0309375 2.80078125 -0.0625 C3.68894531 -0.06765625 4.57710937 -0.0728125 5.4921875 -0.078125 C6.30800293 -0.0874707 7.12381836 -0.09681641 7.96435547 -0.10644531 C10.64152048 0.33521129 11.4848126 1.1284498 13.125 3.25 C13.69946808 4.95434605 14.26099411 6.66308579 14.8125 8.375 C15.94517577 11.18624735 15.94517577 11.18624735 18.125 13.25 C20.906227 13.6503055 23.22836626 13.80827763 26 13.75 C33.35526683 13.60915799 33.35526683 13.60915799 36.62109375 16.328125 C38.37375446 18.90623236 39.78218838 21.43965742 41.125 24.25 C41.67542969 25.14203125 42.22585937 26.0340625 42.79296875 26.953125 C44.125 29.25 44.125 29.25 44.125 31.25 C49.075 31.25 54.025 31.25 59.125 31.25 C60.63287377 33.84988552 62.13145461 36.45440197 63.625 39.0625 C64.26888672 40.16948242 64.26888672 40.16948242 64.92578125 41.29882812 C65.53486328 42.36713867 65.53486328 42.36713867 66.15625 43.45703125 C66.53330078 44.1116333 66.91035156 44.76623535 67.29882812 45.44067383 C68.125 47.25 68.125 47.25 68.125 50.25 C65.155 50.25 62.185 50.25 59.125 50.25 C55.125 43.5 55.125 43.5 55.125 41.25 C50.835 40.92 46.545 40.59 42.125 40.25 C40.6811567 43.83441883 40.6811567 43.83441883 39.43359375 47.48828125 C38.29629705 50.19637339 37.51599465 51.48255611 35.125 53.25 C29.54754403 54.29972202 23.74237894 53.69592203 18.125 53.25 C17.8775 54.095625 17.63 54.94125 17.375 55.8125 C16.125 59.25 16.125 59.25 12.125 66.25 C4.535 66.25 -3.055 66.25 -10.875 66.25 C-12.40494792 63.41796875 -13.93489583 60.5859375 -15.46484375 57.75390625 C-16.65199468 55.38329507 -16.65199468 55.38329507 -17.875 54.25 C-19.46441406 54.40662109 -19.46441406 54.40662109 -21.0859375 54.56640625 C-25.56183924 54.91158449 -29.69443219 55.0895282 -33.875 53.25 C-38.66087234 48.77232782 -43.25771143 41.64374055 -44.875 35.25 C-43.97802734 32.98168945 -43.97802734 32.98168945 -42.875 31.25 C-40.565 31.25 -38.255 31.25 -35.875 31.25 C-35.03651196 32.70537568 -34.20436066 34.16440373 -33.375 35.625 C-32.9109375 36.43710937 -32.446875 37.24921875 -31.96875 38.0859375 C-30.875 40.25 -30.875 40.25 -30.875 42.25 C-30.03521606 42.24214478 -30.03521606 42.24214478 -29.1784668 42.23413086 C-26.63982263 42.21333309 -24.10119641 42.20033096 -21.5625 42.1875 C-20.68142578 42.17912109 -19.80035156 42.17074219 -18.89257812 42.16210938 C-18.04501953 42.15888672 -17.19746094 42.15566406 -16.32421875 42.15234375 C-15.54393311 42.14710693 -14.76364746 42.14187012 -13.9597168 42.13647461 C-11.875 42.25 -11.875 42.25 -8.875 43.25 C-9.1225 44.11625 -9.37 44.9825 -9.625 45.875 C-10.09716598 49.30621067 -10.09716598 49.30621067 -8.75 52.625 C-4.65121115 56.36737243 -1.25676013 55.93087936 4.12890625 55.94921875 C7.28442833 55.53325988 7.28442833 55.53325988 9.01953125 52.94140625 C10.39692198 49.58797087 10.26316153 46.84219978 10.125 43.25 C11.70059325 41.67440675 13.30893622 42.12234738 15.4921875 42.109375 C16.37777344 42.09003906 17.26335937 42.07070313 18.17578125 42.05078125 C20.05056682 42.01707141 21.92569446 41.99870893 23.80078125 41.99609375 C26.33348184 41.9262515 28.65351646 41.81131028 31.125 41.25 C33.74357696 38.36383123 34.16155154 37.1272369 34 33.25 C33.04302299 29.96893597 32.31905005 27.88818974 30.125 25.25 C27.40762764 25.00459853 25.06970192 24.98579821 22.375 25.125 C17.90700037 25.1405 14.93093578 24.99923071 11.515625 21.82421875 C7.125 14.83006198 7.125 14.83006198 7.125 11.25 C6.00480469 11.28480469 4.88460937 11.31960937 3.73046875 11.35546875 C2.25782749 11.38360839 0.78517002 11.41090837 -0.6875 11.4375 C-1.79448242 11.47520508 -1.79448242 11.47520508 -2.92382812 11.51367188 C-8.34300858 11.58723541 -8.34300858 11.58723541 -10.90234375 9.96484375 C-12.56267526 7.03759261 -11.5752166 4.40097471 -10.875 1.25 C-8.5728275 -1.0521725 -3.09057726 0.01709863 0 0 Z " fill="#F9B509" transform="translate(109.875,221.75)"/>
<path d="M0 0 C3.5402436 -0.26275596 7.07798133 -0.42160329 10.625 -0.5625 C11.62402344 -0.63791016 12.62304688 -0.71332031 13.65234375 -0.79101562 C16.67552798 -0.88111052 19.08798141 -0.83479353 22 0 C24.72737018 2.67018556 26.32083481 5.60207715 28 9 C28.99 10.485 28.99 10.485 30 12 C31.78772805 11.95405372 33.57657344 11.89573217 35.359375 11.75537109 C39.1252404 11.52601752 42.47760025 11.52606379 46 13 C50.6545503 17.44966603 53.87375085 23.96364121 56 30 C56 30.99 56 31.98 56 33 C52.85233342 33.56657999 50.11850801 33.80325206 47 33 C45.8046875 30.99609375 45.8046875 30.99609375 44.75 28.5 C43.53038173 25.84426114 43.53038173 25.84426114 41 24 C34.14147575 22.73200092 26.91408491 23.46113247 20 24 C20.30110677 22.03059896 20.60221354 20.06119792 20.90332031 18.09179688 C21.14598118 15.70991361 21.14598118 15.70991361 19.75 12.5 C16.66964328 9.69967571 15.59918705 9.44096201 11.5625 9.125 C8.29503862 9.29559035 6.61854221 9.45926184 4.13671875 11.62890625 C2.68594725 13.78258676 1.68339396 15.48984143 1 18 C1.495 20.475 1.495 20.475 2 23 C-4.93 23 -11.86 23 -19 23 C-19.66 24.65 -20.32 26.3 -21 28 C-21.45375 28.78375 -21.9075 29.5675 -22.375 30.375 C-23.14490789 33.60861314 -22.74748485 35.73276866 -21.00390625 38.58203125 C-17.93617949 40.75276188 -14.68844 40.42734899 -11.0625 40.4375 C-3.65521537 40.47785545 -3.65521537 40.47785545 -0.98046875 42.609375 C0.25637522 44.69826704 1.09791209 46.74860263 2 49 C3.44513812 52.32927261 3.44513812 52.32927261 6 55 C8.87725321 55.79944406 11.65427781 55.74980542 14.625 55.6875 C17.45991351 55.67101794 20.16455338 55.77398614 23 56 C25 59 25 59 24.6875 61.0625 C24 63 24 63 23 65 C7.71413218 66.66622269 7.71413218 66.66622269 1 65 C-1.94850275 61.81195863 -3.18425334 58.85838112 -4.90234375 54.89453125 C-5.59457031 53.93933594 -6.28679687 52.98414063 -7 52 C-10.03351894 51.61813709 -12.38075673 51.5443277 -15.375 51.75 C-18.42048648 51.92206324 -21.08588624 51.97041846 -24 51 C-28.31961907 47.00353186 -30.50405279 41.3925194 -32.96020508 36.15161133 C-35.33385292 31.11037112 -35.33385292 31.11037112 -39 27 C-42.11987309 26.04656327 -45.06807109 26.0189678 -48.3125 26.0625 C-49.14845703 26.04638672 -49.98441406 26.03027344 -50.84570312 26.01367188 C-52.89683911 25.97850954 -54.94861684 25.9850886 -57 26 C-56.125 18.125 -56.125 18.125 -55 17 C-51.38420351 16.66559597 -47.7542759 16.67509038 -44.125 16.625 C-43.10535156 16.58761719 -42.08570313 16.55023438 -41.03515625 16.51171875 C-38.26788777 16.47890529 -35.72179116 16.49424214 -33 17 C-30.9296875 19.4609375 -30.9296875 19.4609375 -30 22 C-29.34 22.33 -28.68 22.66 -28 23 C-27.731875 22.278125 -27.46375 21.55625 -27.1875 20.8125 C-26.795625 19.884375 -26.40375 18.95625 -26 18 C-25.64164063 17.12085938 -25.28328125 16.24171875 -24.9140625 15.3359375 C-24.28242187 14.56507813 -23.65078125 13.79421875 -23 13 C-20.25736643 12.72783026 -17.90910644 12.68743578 -15.1875 12.8125 C-9.41694988 12.82063395 -9.41694988 12.82063395 -4.6484375 9.796875 C-3.16382449 7.2371974 -2.00369584 4.77982119 -1 2 C-0.67 1.34 -0.34 0.68 0 0 Z " fill="#F9B509" transform="translate(99,195)"/>
<path d="M0 0 C2.64 0 5.28 0 8 0 C8.33 12.87 8.66 25.74 9 39 C11.31 37.02 13.62 35.04 16 33 C19.56440418 31.81186527 22.55474782 31.75812047 26.3125 31.6875 C27.60800781 31.65011719 28.90351563 31.61273438 30.23828125 31.57421875 C35.57854338 32.1786721 38.52402742 34.52402742 42.25 38.25 C46.09754371 44.29614012 46.28877352 50.92113563 46.1953125 57.875 C46.19106766 59.08990112 46.19106766 59.08990112 46.18673706 60.3293457 C46.17564715 62.88638834 46.15056452 65.44306535 46.125 68 C46.1149557 69.74608865 46.1058324 71.49218285 46.09765625 73.23828125 C46.07574466 77.49232585 46.04129382 81.74610119 46 86 C43.36 86 40.72 86 38 86 C37.98598145 84.38158203 37.98598145 84.38158203 37.97167969 82.73046875 C37.93156792 78.69702062 37.86575227 74.66431837 37.79248047 70.63134766 C37.76439297 68.89153686 37.74311806 67.15160135 37.72900391 65.41162109 C37.70740347 62.8987703 37.66067014 60.38739967 37.609375 57.875 C37.60814636 57.10696045 37.60691772 56.3389209 37.60565186 55.54760742 C37.45847972 50.0233158 36.14344396 45.60221414 33 41 C29.05349633 39.02674816 24.30133287 39.55650099 20 40 C16.02969927 41.98515037 13.20973457 44.13296451 11 48 C9.36795748 52.91695408 8.7146431 57.29516868 8.5859375 62.46484375 C8.56657135 63.14301651 8.5472052 63.82118927 8.5272522 64.51991272 C8.46808001 66.65898566 8.42132481 68.79811428 8.375 70.9375 C8.33676255 72.39911036 8.29770758 73.86069957 8.2578125 75.32226562 C8.16243181 78.88131543 8.07817433 82.44052587 8 86 C5.36 86 2.72 86 0 86 C0 57.62 0 29.24 0 0 Z " fill="#1C1C1C" transform="translate(195,194)"/>
<path d="M0 0 C1.05550049 0.01244751 1.05550049 0.01244751 2.13232422 0.02514648 C9.68954882 0.27133013 14.16164129 2.22290984 19.375 7.5625 C24.90420148 14.61336183 25.0625 21.6570059 25.0625 30.4375 C10.8725 30.7675 -3.3175 31.0975 -17.9375 31.4375 C-14.77952573 40.06568503 -14.77952573 40.06568503 -8.13671875 45.546875 C-3.06736972 47.59982629 3.31762042 47.29638167 8.484375 45.6796875 C12.30925388 43.85352353 15.28074207 41.68288426 18.0625 38.4375 C20.5375 40.4175 20.5375 40.4175 23.0625 42.4375 C21.69978856 46.89728291 19.92800221 48.86049853 16.0625 51.4375 C7.26053853 56.00774922 -1.50894527 56.38562158 -10.9375 53.4375 C-17.59233969 50.29550912 -21.77508941 46.05879717 -24.9375 39.4375 C-27.33750586 32.23748241 -27.25944043 21.41266105 -24.375 14.3125 C-19.07123212 4.67607667 -11.08637601 -0.16861913 0 0 Z M-14.4375 13.34375 C-16.68515801 16.76632015 -17.93130427 19.41271708 -18.9375 23.4375 C-7.0575 23.4375 4.8225 23.4375 17.0625 23.4375 C15.8930322 16.42069323 14.14178082 12.71030251 8.4375 8.5 C0.09148935 5.8725522 -8.73449611 6.09618256 -14.4375 13.34375 Z " fill="#1C1C1C" transform="translate(384.9375,225.5625)"/>
<path d="M0 0 C2.97 0 5.94 0 9 0 C10.47676354 3.60646505 11.95167336 7.21368263 13.42504883 10.8215332 C14.16590688 12.63465458 14.90812836 14.44721866 15.65039062 16.25976562 C18.86622948 24.13749167 21.97759529 32.04617239 25 40 C28.74247611 31.136403 32.30983792 22.21067685 35.8125 13.25 C36.31954365 11.95568301 36.82670453 10.66141194 37.33398438 9.3671875 C38.55713605 6.24523846 39.77912025 3.12283805 41 0 C43.97 0 46.94 0 50 0 C44.27454783 15.40056594 38.44442144 30.75621752 32.4230957 46.04370117 C31.58658543 48.17208346 30.75401578 50.30201801 29.92504883 52.43334961 C28.70198748 55.57744973 27.46758327 58.71687596 26.23046875 61.85546875 C25.86374557 62.80431442 25.4970224 63.7531601 25.1191864 64.73075867 C22.72887858 70.74429518 20.53538036 75.30974643 15 79 C11.64453125 79.1953125 11.64453125 79.1953125 7.8125 79.125 C6.54019531 79.10695313 5.26789063 79.08890625 3.95703125 79.0703125 C2.98121094 79.04710937 2.00539062 79.02390625 1 79 C1.33 76.36 1.66 73.72 2 71 C2.61488281 71.03480469 3.22976562 71.06960938 3.86328125 71.10546875 C5.07564453 71.14607422 5.07564453 71.14607422 6.3125 71.1875 C7.11300781 71.22230469 7.91351563 71.25710938 8.73828125 71.29296875 C11.00435685 71.17316756 11.00435685 71.17316756 12.58984375 69.9140625 C14.58957333 67.19974811 15.92209232 64.26553843 17.25 61.1875 C17.79140625 59.98480469 18.3328125 58.78210938 18.890625 57.54296875 C20.8513421 51.2811011 18.49668565 46.28328173 16.015625 40.46875 C15.71815369 39.75577759 15.42068237 39.04280518 15.11419678 38.30822754 C14.16546324 36.03624898 13.2084205 33.76790724 12.25 31.5 C11.00060164 28.5331624 9.75552144 25.56457145 8.515625 22.59375 C8.21458862 21.8726001 7.91355225 21.1514502 7.60339355 20.40844727 C4.82384668 13.68852186 2.35783559 6.87862165 0 0 Z " fill="#1C1C1C" transform="translate(251,227)"/>
<path d="M0 0 C1.29550781 -0.02578125 2.59101563 -0.0515625 3.92578125 -0.078125 C8.63552454 0.33269373 11.92732143 1.56759677 15.3671875 4.85546875 C16.47395833 6.3203125 17.58072917 7.78515625 18.6875 9.25 C16.32457344 11.77588702 15.02287489 13.13820837 11.6875 14.25 C10.21484375 13.03515625 10.21484375 13.03515625 8.625 11.3125 C4.86098466 7.8688264 2.00102243 7.62842073 -2.98046875 7.74609375 C-5.96346916 8.39066168 -7.29658865 8.91895768 -9.3125 11.25 C-9.65614646 14.00427032 -9.49570344 16.45614752 -9.3125 19.25 C-7.73662109 19.61351562 -7.73662109 19.61351562 -6.12890625 19.984375 C14.0053288 24.74398636 14.0053288 24.74398636 18.6875 30.25 C20.50455092 35.70115277 20.76950702 41.86999011 18.1875 47.125 C14.77659172 52.21734194 9.61784423 53.80697018 3.875 55.125 C-4.27864469 55.74973898 -11.51927733 54.10732985 -17.8515625 48.84765625 C-19.7601534 46.7604539 -20.3125 45.06871471 -20.3125 42.25 C-15.5625 39.25 -15.5625 39.25 -13.3125 39.25 C-12.714375 40.03375 -12.11625 40.8175 -11.5 41.625 C-8.55111241 45.1636651 -6.49133972 46.01629607 -1.9453125 46.50390625 C2.25426593 46.69706193 5.00869974 46.58940013 8.8125 44.6875 C11.31430023 41.43515971 11.07211766 39.2500237 10.6875 35.25 C5.99836511 32.63490554 1.81078052 30.93446231 -3.4375 29.75 C-10.02559095 28.21305571 -14.59062227 26.16683126 -18.3125 20.25 C-19.05502547 15.7730082 -18.85837651 11.57159576 -17.125 7.375 C-11.96771919 1.32853284 -7.78113265 0.09235766 0 0 Z " fill="#1C1C1C" transform="translate(438.3125,225.75)"/>
<path d="M0 0 C2.97 0 5.94 0 9 0 C13.00594132 9.47407316 16.78169952 19.03083176 20.49951172 28.62084961 C21.22136364 30.48118807 21.94656043 32.34022758 22.671875 34.19921875 C23.30754395 35.83636841 23.30754395 35.83636841 23.95605469 37.5065918 C24.77246114 39.89884862 24.77246114 39.89884862 26 41 C30.95 27.47 35.9 13.94 41 0 C43.97 0 46.94 0 50 0 C45.3476829 12.55724707 40.62036063 25.08382742 35.73770142 37.55334473 C35.24558928 38.81024304 34.75435887 40.06748693 34.26400757 41.32507324 C33.57467611 43.09152342 32.88118516 44.85634872 32.1875 46.62109375 C31.78917969 47.6361499 31.39085937 48.65120605 30.98046875 49.69702148 C30 52 30 52 29 53 C26.32941149 53.14115161 23.67567762 53.04247107 21 53 C18.97078646 48.02475491 16.94458043 43.04829841 14.92089844 38.07080078 C14.23515742 36.3852609 13.54866058 34.70002827 12.86132812 33.01513672 C8.39803602 22.07224073 4.0813152 11.09132523 0 0 Z " fill="#1C1C1C" transform="translate(302,227)"/>
<path d="M0 0 C2 1 2 1 2 1 Z " fill="#FF4E57" transform="translate(46,209)"/>
<path d="" fill="#FFFFFF" transform="translate(0,0)"/>
</svg>
