<?xml version="1.0" encoding="UTF-8"?>
<svg version="1.1" xmlns="http://www.w3.org/2000/svg" width="453" height="148">
<path d="M0 0 C149.49 0 298.98 0 453 0 C453 48.84 453 97.68 453 148 C303.51 148 154.02 148 0 148 C0 99.16 0 50.32 0 0 Z " fill="#FEFEFD" transform="translate(0,0)"/>
<path d="M0 0 C17.765592 -1.63448476 17.765592 -1.63448476 22.8515625 2.0859375 C25.46172176 5.87344519 27.04488643 9.50781749 28 14 C29.08539063 13.89558594 30.17078125 13.79117188 31.2890625 13.68359375 C42.6067476 12.91528793 42.6067476 12.91528793 46.2578125 15.7578125 C47.78085282 18.11015226 48.91090168 20.42055662 50 23 C50.77693037 24.32127649 51.56708304 25.63494 52.375 26.9375 C54 30 54 30 54 32 C48.8301455 32.70099722 48.8301455 32.70099722 46 32 C43.36841056 29.26214685 41 25.89044106 41 22 C34.4 22 27.8 22 21 22 C20.505 18.535 20.505 18.535 20 15 C18.52012037 12.25427272 18.52012037 12.25427272 17 10 C17 9.34 17 8.68 17 8 C12.71 8 8.42 8 4 8 C3.34 9.65 2.68 11.3 2 13 C1.62875 13.66 1.2575 14.32 0.875 15 C-0.1942778 17.44406354 -0.06084886 19.35742074 0 22 C-0.58491211 21.99363525 -1.16982422 21.98727051 -1.77246094 21.98071289 C-4.43292914 21.97200648 -7.08993496 22.01669998 -9.75 22.0625 C-10.67039063 22.05154297 -11.59078125 22.04058594 -12.5390625 22.02929688 C-17.4978951 22.02730408 -17.4978951 22.02730408 -21.53759766 24.51293945 C-23.29860403 27.45246547 -24.0148394 29.63643469 -23.875 33.0625 C-22.98052418 36.06538311 -21.99693499 39.02979286 -21 42 C-19.865625 41.84917969 -18.73125 41.69835938 -17.5625 41.54296875 C-5.9559771 40.47041029 -5.9559771 40.47041029 -2.40966797 43.24365234 C0.63904724 46.89466645 4 52.15409967 4 57 C5.82337891 56.98259766 5.82337891 56.98259766 7.68359375 56.96484375 C9.26822764 56.95546722 10.85286318 56.94636687 12.4375 56.9375 C13.23994141 56.92912109 14.04238281 56.92074219 14.86914062 56.91210938 C16.91295221 56.9034857 18.95683902 56.9477185 21 57 C22 58 22 58 22.125 60.5 C22 63 22 63 21 64 C14.2847189 65.12192555 6.6227491 65.76560842 0 64 C-2.44819662 61.31358065 -3.70571179 59.00308439 -5.10473633 55.68164062 C-5.99942935 53.61984811 -5.99942935 53.61984811 -8 51 C-10.82893888 50.67062409 -12.96823126 50.63698427 -15.75 50.875 C-18.73618476 51.08839821 -21.18430552 51.08730291 -24 50 C-28.81054448 45.34925742 -31.84180618 39.10925062 -34.81176758 33.18237305 C-35.96494209 30.9318773 -35.96494209 30.9318773 -37.6472168 28.84301758 C-39 27 -39 27 -39 25 C-44.94 25 -50.88 25 -57 25 C-56.67 22.69 -56.34 20.38 -56 18 C-52.58378212 17.85460047 -49.16836009 17.76590275 -45.75 17.6875 C-44.78191406 17.64560547 -43.81382813 17.60371094 -42.81640625 17.56054688 C-40.12187511 17.51408944 -37.65343224 17.52213337 -35 18 C-32.453125 20.51953125 -32.453125 20.51953125 -31 23 C-30.34 23 -29.68 23 -29 23 C-28.28197732 21.50461392 -27.5757353 20.00356448 -26.875 18.5 C-25.328125 16.00390625 -25.328125 16.00390625 -23 14 C-17.56820444 13.1787898 -12.45079668 13.47563595 -7 14 C-6.72414062 13.27425781 -6.44828125 12.54851563 -6.1640625 11.80078125 C-5.05634436 9.1355668 -3.79768625 6.69592049 -2.375 4.1875 C-1.70597656 3.00220703 -1.70597656 3.00220703 -1.0234375 1.79296875 C-0.68570313 1.20128906 -0.34796875 0.60960938 0 0 Z " fill="#F9B712" transform="translate(71,22)"/>
<path d="M0 0 C4.85674788 0.10904687 7.17184535 0.19688858 10.90356445 3.49365234 C12.9744737 7.12751197 14.9543457 10.62014325 14.9543457 14.88818359 C16.07711914 14.71416016 17.19989258 14.54013672 18.35668945 14.36083984 C27.58922715 13.3690593 27.58922715 13.3690593 31.9543457 14.88818359 C34.65697756 17.60814586 35.99044468 21.03109898 37.55932617 24.47998047 C38.56282633 26.49559453 39.46439266 28.19719165 40.9543457 29.88818359 C44.91976233 30.69075976 48.37025905 30.45731981 52.3996582 30.27490234 C56.17685716 30.92657293 56.55080585 31.05081818 58.6965332 33.90771484 C61.35354071 38.23301054 63.9543457 42.7307607 63.9543457 47.88818359 C60.8293457 48.45068359 60.8293457 48.45068359 56.9543457 47.88818359 C55.57543945 45.88427734 55.57543945 45.88427734 54.2668457 43.38818359 C52.43573499 40.29695368 51.587563 39.11104778 48.1574707 37.90380859 C44.63599371 37.60597223 42.29263762 37.69657405 38.9543457 38.88818359 C35.84181856 42.20715387 33.91976488 45.81105191 31.9543457 49.88818359 C31.6243457 50.21818359 31.2943457 50.54818359 30.9543457 50.88818359 C29.84833008 50.85337891 28.74231445 50.81857422 27.6027832 50.78271484 C21.1862264 50.56709506 21.1862264 50.56709506 14.9543457 51.88818359 C11.52304027 55.4752215 9.77089422 59.31021517 7.9543457 63.88818359 C5.20492342 66.63760588 -1.77652185 65.67632673 -5.44897461 65.77636719 C-10.18188737 65.66481419 -12.32312447 65.54120175 -15.9284668 62.28271484 C-20.0456543 55.07333004 -20.0456543 55.07333004 -20.0456543 50.88818359 C-21.58672852 51.18402344 -21.58672852 51.18402344 -23.15893555 51.48583984 C-27.60244433 52.07182656 -31.78016847 52.50016356 -36.0456543 50.88818359 C-40.90008851 46.64502956 -44.98187424 39.99637641 -47.0456543 33.88818359 C-46.7156543 32.89818359 -46.3856543 31.90818359 -46.0456543 30.88818359 C-43.4206543 30.32568359 -43.4206543 30.32568359 -40.0456543 30.88818359 C-37.14062477 34.19390685 -35.00823639 37.9630194 -33.0456543 41.88818359 C-26.4456543 42.21818359 -19.8456543 42.54818359 -13.0456543 42.88818359 C-13.0456543 44.86818359 -13.0456543 46.84818359 -13.0456543 48.88818359 C-12.13565904 52.42360309 -12.13565904 52.42360309 -9.0456543 54.88818359 C-4.37860308 55.7127319 0.22131028 55.87552842 4.9543457 55.88818359 C6.53689767 51.56254155 7.40579222 47.45946259 7.9543457 42.88818359 C8.83171387 42.89773071 8.83171387 42.89773071 9.72680664 42.9074707 C12.38727484 42.91617711 15.04428066 42.87148361 17.7043457 42.82568359 C18.62473633 42.83664063 19.54512695 42.84759766 20.4934082 42.85888672 C25.45568421 42.87080151 25.45568421 42.87080151 29.4699707 40.35766602 C31.49317012 36.90242077 32.76502514 33.84024583 31.9543457 29.88818359 C30.67680016 27.85209539 29.34734752 25.8470924 27.9543457 23.88818359 C27.9543457 23.22818359 27.9543457 22.56818359 27.9543457 21.88818359 C26.80836914 22.02740234 25.66239258 22.16662109 24.48168945 22.31005859 C15.11443379 23.10399881 15.11443379 23.10399881 10.9543457 21.88818359 C8.58657942 18.9502383 7.44588359 16.07731634 5.9699707 12.61865234 C4.29923188 9.82138056 4.29923188 9.82138056 2.15942383 9.25390625 C-1.44324622 8.71249847 -4.96418893 8.75672564 -8.59643555 8.88037109 C-9.73467773 8.88294922 -10.87291992 8.88552734 -12.0456543 8.88818359 C-14.0456543 6.88818359 -14.0456543 6.88818359 -14.2331543 4.32568359 C-13.77318014 -1.65398048 -4.6788736 0.12124474 0 0 Z " fill="#F9B710" transform="translate(84.045654296875,50.11181640625)"/>
<path d="M0 0 C6.74519485 3.16942891 10.88243038 6.94999611 13.90625 13.84375 C15.09375 18.09375 15.09375 18.09375 15.09375 28.09375 C0.90375 28.09375 -13.28625 28.09375 -27.90625 28.09375 C-26.15218163 36.5040384 -26.15218163 36.5040384 -21.03125 43.21875 C-19.979375 43.651875 -19.979375 43.651875 -18.90625 44.09375 C-18.308125 44.43277344 -17.71 44.77179688 -17.09375 45.12109375 C-12.03142903 47.37201861 -6.16689973 46.89343562 -1.03515625 45.078125 C4.29141341 42.5117242 4.29141341 42.5117242 8.09375 38.09375 C10.03125 38.84375 10.03125 38.84375 12.09375 40.09375 C12.72265625 42.171875 12.72265625 42.171875 13.09375 44.09375 C6.34736642 50.79674847 0.1451429 53.17003915 -9.34375 53.59375 C-16.68576139 53.38789921 -22.47532198 51.50287127 -27.75 46.26171875 C-33.69243288 38.87737201 -35.55406914 31.78637393 -35.32421875 22.3515625 C-34.37666499 14.96595655 -30.67996315 8.76770826 -24.90625 4.09375 C-16.90997593 -1.00582609 -9.39323983 -2.92907479 0 0 Z " fill="#222222" transform="translate(364.90625,53.90625)"/>
<path d="M0 0 C2.31 0 4.62 0 7 0 C7.33 13.2 7.66 26.4 8 40 C10.475 37.525 10.475 37.525 13 35 C18.53274857 31.08659247 24.48185952 31.362551 31 32 C36.45248198 33.71652211 39.7878009 37.39619673 43 42 C43.90208123 44.7062437 44.12227599 46.23850986 44.11352539 49.01245117 C44.11344986 49.81305466 44.11337433 50.61365814 44.11329651 51.43852234 C44.10813522 52.29798965 44.10297394 53.15745697 44.09765625 54.04296875 C44.0962413 54.9265657 44.09482635 55.81016266 44.09336853 56.72053528 C44.08777069 59.54289128 44.07521861 62.36516797 44.0625 65.1875 C44.05748472 67.10091031 44.05292186 69.01432187 44.04882812 70.92773438 C44.03780197 75.61852014 44.02053883 80.30924663 44 85 C42.02 85 40.04 85 38 85 C37.98541748 83.98164062 37.97083496 82.96328125 37.95581055 81.9140625 C37.89745571 78.10431328 37.82022822 74.29513234 37.73754883 70.48583984 C37.70447322 68.84303063 37.67638823 67.20011253 37.65356445 65.55712891 C37.61969595 63.183451 37.56736925 60.81075559 37.51171875 58.4375 C37.50532883 57.71320801 37.4989389 56.98891602 37.49235535 56.24267578 C37.34232435 50.93605936 36.19981648 46.84913921 34 42 C29.99041307 38.94507663 26.08697667 38.45398588 21.171875 38.66015625 C16.32367112 39.41877808 13.25995766 42.29467703 10.37890625 46.0625 C6.33723311 52.68957763 7.2130475 60.98439145 7.1875 68.5 C7.16432838 70.10159614 7.13895755 71.70316206 7.11132812 73.3046875 C7.04881966 77.20323783 7.01621407 81.1009935 7 85 C4.69 85 2.38 85 0 85 C0 56.95 0 28.9 0 0 Z " fill="#232323" transform="translate(167,21)"/>
<path d="M0 0 C2.64 0 5.28 0 8 0 C8.44915771 1.17095215 8.89831543 2.3419043 9.36108398 3.54833984 C11.02429407 7.88352811 12.68882485 12.21820827 14.35375977 16.55273438 C15.0748249 18.43052509 15.79552949 20.3084543 16.51586914 22.18652344 C17.55000059 24.88252477 18.58541823 27.57802901 19.62109375 30.2734375 C19.94403915 31.11619232 20.26698456 31.95894714 20.59971619 32.82723999 C20.89995193 33.60789825 21.20018768 34.38855652 21.50952148 35.19287109 C21.77377426 35.88126068 22.03802704 36.56965027 22.31028748 37.27890015 C23.00042911 39.06953356 23.00042911 39.06953356 24 41 C28.09868653 32.10793431 31.52813255 22.9680278 35.01733398 13.82568359 C35.81537534 11.73711696 36.61655288 9.64977359 37.41796875 7.5625 C37.6627446 6.91780762 37.90752045 6.27311523 38.15971375 5.60888672 C39.88707028 1.11292972 39.88707028 1.11292972 41 0 C43.33297433 -0.04092937 45.66705225 -0.04241723 48 0 C45.82256181 6.76930798 43.36747047 13.40627169 40.796875 20.03515625 C40.19555756 21.59054359 40.19555756 21.59054359 39.58209229 23.17735291 C38.73599469 25.36369349 37.88878696 27.54960475 37.04052734 29.73510742 C35.7638024 33.026913 34.49303493 36.32097533 33.22265625 39.61523438 C30.84803519 45.75670975 28.44061865 51.88445594 26 58 C25.660896 58.85180847 25.32179199 59.70361694 24.97241211 60.58123779 C24.06712684 62.83158856 23.14077818 65.07157006 22.203125 67.30859375 C21.69942383 68.52216553 21.19572266 69.7357373 20.67675781 70.98608398 C18.51497031 74.87182463 15.95118879 77.0244056 12 79 C10.3146804 79.09534254 8.62550734 79.12985758 6.9375 79.125 C5.58978516 79.12886719 5.58978516 79.12886719 4.21484375 79.1328125 C2 79 2 79 1 78 C0.95919217 76.00041636 0.95745644 73.99954746 1 72 C1.60328125 72.04640625 2.2065625 72.0928125 2.828125 72.140625 C3.62734375 72.17671875 4.4265625 72.2128125 5.25 72.25 C6.03890625 72.29640625 6.8278125 72.3428125 7.640625 72.390625 C10.94487666 71.84356347 11.94444541 70.61226729 14 68 C15.54920485 64.9657448 15.54920485 64.9657448 16.75 61.625 C17.17796875 60.52414063 17.6059375 59.42328125 18.046875 58.2890625 C20.27280735 50.60777136 17.81682471 45.29115758 14.84375 38.203125 C14.42202515 37.17314392 14.00030029 36.14316284 13.5657959 35.08197021 C12.22035412 31.80050356 10.8608933 28.52508515 9.5 25.25 C8.14155348 21.95968995 6.78607384 18.66820074 5.4342041 15.37518311 C4.59279753 13.32784618 3.7471203 11.28225835 2.89685059 9.23858643 C2.5164563 8.3171283 2.13606201 7.39567017 1.74414062 6.44628906 C1.40660767 5.63387756 1.06907471 4.82146606 0.72131348 3.98443604 C0 2 0 2 0 0 Z " fill="#242424" transform="translate(223,54)"/>
<path d="M0 0 C2.76906954 1.60380498 4.63887593 3.5861124 6.7265625 6 C6.3965625 6.99 6.0665625 7.98 5.7265625 9 C3.1640625 10.1875 3.1640625 10.1875 0.7265625 11 C0.32566406 10.566875 -0.07523437 10.13375 -0.48828125 9.6875 C-3.79489143 6.44837166 -6.15825111 4.55660016 -10.8984375 4.4375 C-14.69790152 4.72926772 -17.41864378 5.32363088 -20.2734375 8 C-21.12059109 11.12795172 -21.2734375 13.76811971 -21.2734375 17 C-20.70238281 17.17015625 -20.13132812 17.3403125 -19.54296875 17.515625 C-17.80875513 18.03395912 -16.07579505 18.55649621 -14.34375 19.08203125 C-12.19831256 19.72347883 -10.04663071 20.34424255 -7.890625 20.94921875 C-6.75882812 21.27535156 -5.62703125 21.60148437 -4.4609375 21.9375 C-3.40261719 22.23527344 -2.34429687 22.53304687 -1.25390625 22.83984375 C2.64039756 24.35571299 5.57688202 26.412346 8.0390625 29.8125 C9.53766009 34.58076505 9.1278093 38.66161146 7.1640625 43.1875 C4.34546645 48.38176987 0.24148736 50.16169171 -5.2734375 52 C-13.70374475 52.89820625 -20.25164352 51.90200712 -27.2734375 47 C-29.8984375 44.1875 -29.8984375 44.1875 -31.2734375 42 C-29.4609375 40 -29.4609375 40 -27.2734375 38 C-24.2734375 38 -24.2734375 38 -21.8359375 40.375 C-20.9903125 41.24125 -20.1446875 42.1075 -19.2734375 43 C-15.66067626 45.61613745 -11.57308182 45.54572409 -7.2734375 45 C-3.2508158 43.43564712 -1.68194641 42.61276337 0.7265625 39 C1.12959152 35.48188593 1.12959152 35.48188593 -0.2734375 32 C-5.1604063 28.3955841 -11.13665839 27.58329742 -16.9765625 26.55859375 C-21.49522919 25.45966631 -25.3316019 22.56116941 -28.2734375 19 C-29.47987316 15.38069302 -29.59612309 12.80768995 -29.2734375 9 C-23.18950731 -2.49186814 -11.59894709 -4.96415842 0 0 Z " fill="#242424" transform="translate(420.2734375,55)"/>
<path d="M0 0 C2.64 0 5.28 0 8 0 C13.28 13.86 18.56 27.72 24 42 C25.61492296 39.57761556 26.58721765 37.741947 27.60400391 35.0793457 C28.05424423 33.9084716 28.05424423 33.9084716 28.51358032 32.71394348 C28.83136444 31.87634995 29.14914856 31.03875641 29.4765625 30.17578125 C29.80667328 29.31438034 30.13678406 28.45297943 30.47689819 27.56547546 C31.52973371 24.81579548 32.57742396 22.06418748 33.625 19.3125 C34.3382035 17.4471363 35.05174115 15.58190031 35.765625 13.71679688 C37.51429637 9.14600384 39.25835595 4.57347508 41 0 C43.31 0 45.62 0 48 0 C45.9531584 6.34592402 43.67839809 12.57138548 41.2421875 18.77734375 C40.7194072 20.1161837 40.7194072 20.1161837 40.18606567 21.48207092 C39.45598792 23.35051931 38.72484492 25.21855179 37.99267578 27.08618164 C36.86893462 29.95297347 35.74865706 32.82110063 34.62890625 35.68945312 C33.91686688 37.51049496 33.20463428 39.33146126 32.4921875 41.15234375 C32.15677948 42.01061264 31.82137146 42.86888153 31.47579956 43.75315857 C31.16522614 44.54480911 30.85465271 45.33645966 30.53466797 46.15209961 C30.12521439 47.1972599 30.12521439 47.1972599 29.70748901 48.26353455 C29 50 29 50 28 52 C25.69 52 23.38 52 21 52 C17.97943123 46.14077347 15.35474306 40.21352775 12.890625 34.1015625 C12.51895203 33.18539154 12.14727905 32.26922058 11.76434326 31.32528687 C10.98630049 29.40484848 10.20989423 27.48374633 9.43505859 25.56201172 C8.24430477 22.61088511 7.04630684 19.66277046 5.84765625 16.71484375 C5.09071179 14.84392555 4.33418621 12.97283781 3.578125 11.1015625 C3.21881897 10.21828278 2.85951294 9.33500305 2.48931885 8.42495728 C2.16187683 7.61005829 1.83443481 6.7951593 1.49707031 5.95556641 C1.20713196 5.23801178 0.9171936 4.52045715 0.61846924 3.78115845 C0 2 0 2 0 0 Z " fill="#242424" transform="translate(274,54)"/>
<path d="M0 0 C4.55304897 2.53920039 7.37606762 5.50160143 10.25 9.8125 C10.25 11.7925 10.25 13.7725 10.25 15.8125 C-1.63 15.8125 -13.51 15.8125 -25.75 15.8125 C-24.72818204 9.68159222 -23.74787309 6.39663947 -19.0234375 2.32421875 C-12.6778263 -2.16321547 -7.28551094 -2.30707847 0 0 Z " fill="#FAFAFA" transform="translate(362.75,60.1875)"/>
</svg>
